<svg width="16" height="16" viewBox="0 0 20 20" fill="none" xmlns="http://www.w3.org/2000/svg">
<path d="M7.87882 3.03029H11.5152C11.5152 2.54808 11.3236 2.08561 10.9826 1.74464C10.6417 1.40366 10.1792 1.21211 9.697 1.21211C9.21479 1.21211 8.75233 1.40366 8.41135 1.74464C8.07038 2.08561 7.87882 2.54808 7.87882 3.03029ZM6.6667 3.03029C6.6667 2.2266 6.98596 1.45583 7.55425 0.88754C8.12254 0.319248 8.89331 -1.52588e-05 9.697 -1.52588e-05C10.5007 -1.52588e-05 11.2715 0.319248 11.8397 0.88754C12.408 1.45583 12.7273 2.2266 12.7273 3.03029H18.7879C18.9486 3.03029 19.1028 3.09414 19.2165 3.2078C19.3301 3.32146 19.394 3.47561 19.394 3.63635C19.394 3.79709 19.3301 3.95124 19.2165 4.0649C19.1028 4.17856 18.9486 4.24241 18.7879 4.24241H17.5103L16.0631 16.7806C15.9608 17.6669 15.5362 18.4846 14.8702 19.0783C14.2041 19.6719 13.3431 19.9999 12.4509 20H6.94306C6.05088 19.9999 5.18986 19.6719 4.52383 19.0783C3.8578 18.4846 3.43324 17.6669 3.33094 16.7806L1.88367 4.24241H0.606091C0.445354 4.24241 0.2912 4.17856 0.177542 4.0649C0.0638833 3.95124 3.05176e-05 3.79709 3.05176e-05 3.63635C3.05176e-05 3.47561 0.0638833 3.32146 0.177542 3.2078C0.2912 3.09414 0.445354 3.03029 0.606091 3.03029H6.6667ZM4.53458 16.6424C4.60297 17.2332 4.88615 17.7782 5.33023 18.1738C5.77432 18.5694 6.34833 18.7879 6.94306 18.7879H12.4509C13.0457 18.7879 13.6197 18.5694 14.0638 18.1738C14.5079 17.7782 14.791 17.2332 14.8594 16.6424L16.2897 4.24241H3.10427L4.53458 16.6424ZM7.87882 7.27271C8.03956 7.27271 8.19371 7.33657 8.30737 7.45022C8.42103 7.56388 8.48488 7.71804 8.48488 7.87877V15.1515C8.48488 15.3122 8.42103 15.4664 8.30737 15.5801C8.19371 15.6937 8.03956 15.7576 7.87882 15.7576C7.71808 15.7576 7.56393 15.6937 7.45027 15.5801C7.33661 15.4664 7.27276 15.3122 7.27276 15.1515V7.87877C7.27276 7.71804 7.33661 7.56388 7.45027 7.45022C7.56393 7.33657 7.71808 7.27271 7.87882 7.27271ZM12.1212 7.87877C12.1212 7.71804 12.0574 7.56388 11.9437 7.45022C11.8301 7.33657 11.6759 7.27271 11.5152 7.27271C11.3544 7.27271 11.2003 7.33657 11.0866 7.45022C10.973 7.56388 10.9091 7.71804 10.9091 7.87877V15.1515C10.9091 15.3122 10.973 15.4664 11.0866 15.5801C11.2003 15.6937 11.3544 15.7576 11.5152 15.7576C11.6759 15.7576 11.8301 15.6937 11.9437 15.5801C12.0574 15.4664 12.1212 15.3122 12.1212 15.1515V7.87877Z" fill="#F1416C"/>
</svg>
