<svg width="18" height="21" viewBox="0 0 18 21" fill="none" xmlns="http://www.w3.org/2000/svg">
<path fill-rule="evenodd" clip-rule="evenodd" d="M15.1352 2.57694C10.8251 2.09522 6.47479 2.09522 2.16469 2.57694C2.09862 2.58452 2.03578 2.60969 1.98275 2.64983C1.92972 2.68997 1.88843 2.74361 1.86319 2.80514C1.83796 2.86668 1.8297 2.93386 1.83929 2.99968C1.84887 3.06549 1.87594 3.12753 1.91768 3.17932L5.72801 7.88997C7.09285 9.57726 7.83743 11.6818 7.8374 13.8519V16.9819L9.46251 18.1737V13.8509C9.46273 11.681 10.2073 9.57697 11.5719 7.88997L15.3822 3.17932C15.424 3.12753 15.451 3.06549 15.4606 2.99968C15.4702 2.93386 15.462 2.86668 15.4367 2.80514C15.4115 2.74361 15.3702 2.68997 15.3172 2.64983C15.2641 2.60969 15.2013 2.58452 15.1352 2.57694ZM1.98485 0.961587C6.41482 0.466458 10.8862 0.466458 15.3162 0.961587C16.8828 1.1371 17.6379 2.97455 16.6466 4.20097L12.8352 8.91162C11.7043 10.3098 11.0874 12.0537 11.0876 13.8519V19.7771C11.0877 19.9274 11.0462 20.0747 10.9676 20.2028C10.889 20.3308 10.7764 20.4346 10.6423 20.5025C10.5083 20.5704 10.358 20.5998 10.2083 20.5875C10.0585 20.5751 9.91514 20.5215 9.79404 20.4326L6.54382 18.0491C6.44097 17.9735 6.35736 17.8748 6.29977 17.7609C6.24217 17.6471 6.2122 17.5212 6.2123 17.3936V13.8509C6.2123 12.0524 5.59476 10.3092 4.46476 8.91053L0.654425 4.20205C-0.337975 2.97564 0.416076 1.1371 1.98485 0.961587Z" fill="#141C38"/>
</svg>
