<svg width="50" height="36" viewBox="0 0 50 36" fill="none" xmlns="http://www.w3.org/2000/svg">
<path d="M40.7257 13.4506C46.2187 14.02 50.5 18.6111 50.5 24.25C50.5 30.2761 45.6095 35.1667 39.5833 35.1667H12.5C5.32804 35.1667 -0.499969 29.3387 -0.5 22.1667L40.7257 13.4506ZM40.7257 13.4506C39.9468 9.93843 38.013 6.7841 35.228 4.49547C32.3457 2.12691 28.7305 0.8325 24.9999 0.833344C18.8799 0.833344 13.5538 4.2538 10.8271 9.2843C7.74439 9.68161 4.90292 11.1722 2.82269 13.4896C0.682995 15.8733 -0.500358 18.9635 -0.5 22.1667L40.7257 13.4506ZM13.9792 14.3333H14.3563L14.4599 13.9707C15.7757 9.36538 19.9809 6.00001 25 6.00001C31.0572 6.00001 35.9583 10.9012 35.9583 16.9583V18V18.5H36.4583H39.5833C42.7655 18.5 45.3333 21.0678 45.3333 24.25C45.3333 27.4322 42.7655 30 39.5833 30H12.5C8.17198 30 4.66667 26.4947 4.66667 22.1667C4.66667 17.8386 8.17198 14.3333 12.5 14.3333H13.9792Z" fill="white" stroke="white"/>
</svg>
