<svg width="24" height="24" viewBox="0 0 24 24" fill="none" xmlns="http://www.w3.org/2000/svg">
<path d="M14.998 7C14.986 4.825 14.889 3.647 14.121 2.879C13.242 2 11.828 2 8.99999 2H7.99999C5.17099 2 3.75699 2 2.87799 2.879C1.99999 3.757 1.99999 5.172 1.99999 8V16C1.99999 18.828 1.99999 20.243 2.87799 21.121C3.75799 22 5.17099 22 7.99999 22H8.99999C11.828 22 13.242 22 14.121 21.121C14.889 20.353 14.986 19.175 14.998 17" stroke="white" stroke-width="1.5" stroke-linecap="round"/>
<path d="M9 12H22M22 12L18.5 9M22 12L18.5 15" stroke="white" stroke-width="1.5" stroke-linecap="round" stroke-linejoin="round"/>
</svg>
