<svg width="34" height="34" viewBox="0 0 34 34" fill="none" xmlns="http://www.w3.org/2000/svg">
<g clip-path="url(#clip0_1523_3520)">
<path d="M26.5625 13.7558V12.7571C26.5625 7.27598 22.2785 2.83331 17 2.83331C11.7215 2.83331 7.43753 7.27598 7.43753 12.7571V13.7558C7.43923 14.948 7.09901 16.1157 6.45719 17.1204L4.88753 19.5641C3.45528 21.7954 4.54894 24.8285 7.04086 25.534C13.552 27.3798 20.448 27.3798 26.9592 25.534C29.4511 24.8285 30.5448 21.7954 29.1125 19.5656L27.5429 17.1218C26.9005 16.1173 26.5598 14.9496 26.5611 13.7572L26.5625 13.7558Z" stroke="black" stroke-width="1.5"/>
<path d="M10.625 26.9167C11.5529 29.393 14.0562 31.1667 17 31.1667C19.9438 31.1667 22.4471 29.393 23.375 26.9167" stroke="black" stroke-width="1.5" stroke-linecap="round"/>
<circle cx="24.0833" cy="7.08333" r="7.58333" fill="#FF2626" stroke="white"/>
</g>
<defs>
<clipPath id="clip0_1523_3520">
<rect width="34" height="34" fill="white"/>
</clipPath>
</defs>
</svg>
