<svg width="16" height="16" viewBox="0 0 20 20" fill="none" xmlns="http://www.w3.org/2000/svg">
<path d="M10 0C4.47768 0 0 4.47768 0 10C0 15.5223 4.47768 20 10 20C15.5223 20 20 15.5223 20 10C20 4.47768 15.5223 0 10 0ZM10 18.3036C5.41518 18.3036 1.69643 14.5848 1.69643 10C1.69643 8.01339 2.39509 6.1875 3.56027 4.75893L15.2411 16.4397C13.8125 17.6049 11.9866 18.3036 10 18.3036ZM16.4397 15.2411L4.75893 3.56027C6.1875 2.39509 8.01339 1.69643 10 1.69643C14.5848 1.69643 18.3036 5.41518 18.3036 10C18.3036 11.9866 17.6049 13.8125 16.4397 15.2411Z" fill="#FFA800"/>
</svg>
